<?xml version="1.0" encoding="iso-8859-1"?>
<!-- Generator: Adobe Illustrator 19.0.0, SVG Export Plug-In . SVG Version: 6.00 Build 0)  -->
<svg version="1.1" id="Capa_1" xmlns="http://www.w3.org/2000/svg" xmlns:xlink="http://www.w3.org/1999/xlink" x="0px" y="0px"
	 viewBox="0 0 512 512" style="enable-background:new 0 0 512 512;" xml:space="preserve">
<rect x="25" y="161.5" style="fill:#FFE8CC;" width="30" height="300"/>
<g>
	<rect x="10" y="191.5" style="fill:#FEDBAB;" width="60" height="30"/>
	<polygon style="fill:#FEDBAB;" points="346,291.5 346,250.5 166,250.5 166,291.5 116,291.5 116,461.5 396,461.5 396,291.5 	"/>
</g>
<polygon style="fill:#FEC478;" points="346,291.5 346,250.5 256,250.5 256,461.5 396,461.5 396,291.5 "/>
<path style="fill:#FFE8CC;" d="M180,128.5l76-57l76,57c27.699,20.774,44,53.377,44,88l0,0c0,24.853-20.147,45-45,45H181
	c-24.853,0-45-20.147-45-45l0,0C136,181.877,152.301,149.274,180,128.5z"/>
<path style="fill:#FEDBAB;" d="M332,128.5l-76-57v190h75c24.853,0,45-20.147,45-45l0,0C376,181.877,359.699,149.274,332,128.5z"/>
<path style="fill:#FFE8CC;" d="M131,256.5L131,256.5c19.33,0,35,15.67,35,35v170H96v-170C96,272.17,111.67,256.5,131,256.5z"/>
<g>
	<path style="fill:#FEDBAB;" d="M381,256.5L381,256.5c19.33,0,35,15.67,35,35v170h-70v-170C346,272.17,361.67,256.5,381,256.5z"/>
	<rect x="96" y="296.5" style="fill:#FEDBAB;" width="320" height="30"/>
</g>
<path style="fill:#57565C;" d="M286,461.5h-60v-20c0-19.346,6.393-38.524,18-54l12-16l12,16c11.607,15.476,18,34.654,18,54V461.5z"
	/>
<g>
	<circle style="fill:#FEDBAB;" cx="256" cy="55.5" r="20"/>
	<rect x="457" y="161.5" style="fill:#FEDBAB;" width="30" height="300"/>
</g>
<rect x="166" y="296.5" style="fill:#FEC478;" width="250" height="30"/>
<rect x="256" y="296.5" style="fill:#FEA832;" width="90" height="30"/>
<rect x="442" y="191.5" style="fill:#FEC478;" width="60" height="30"/>
<path style="fill:#3E3D42;" d="M268,387.5l-12-16v90h30v-20C286,422.154,279.607,402.976,268,387.5z"/>
<rect y="446.5" style="fill:#FEC478;" width="512" height="30"/>
<rect x="256" y="446.5" style="fill:#FEA832;" width="256" height="30"/>
<g>
</g>
<g>
</g>
<g>
</g>
<g>
</g>
<g>
</g>
<g>
</g>
<g>
</g>
<g>
</g>
<g>
</g>
<g>
</g>
<g>
</g>
<g>
</g>
<g>
</g>
<g>
</g>
<g>
</g>
</svg>
